<svg xmlns="http://www.w3.org/2000/svg" viewBox="0 0 120 120">
  <rect width="120" height="120" fill="#060c1a"/>
  <radialGradient id="gg" cx="50%" cy="50%" r="50%">
    <stop offset="0%" stop-color="#fff8e0" stop-opacity="1"/>
    <stop offset="25%" stop-color="#f0d880" stop-opacity="0.9"/>
    <stop offset="55%" stop-color="#c0a040" stop-opacity="0.6"/>
    <stop offset="80%" stop-color="#806020" stop-opacity="0.3"/>
    <stop offset="100%" stop-color="#402010" stop-opacity="0"/>
  </radialGradient>
  <circle cx="60" cy="60" r="46" fill="url(#gg)"/>
  <!-- Dense core -->
  <circle cx="60" cy="60" r="18" fill="#fff4c0" fill-opacity="0.7"/>
  <circle cx="60" cy="60" r="10" fill="#fffce8" fill-opacity="0.8"/>
  <circle cx="60" cy="60" r="5"  fill="#ffffff"  fill-opacity="0.9"/>
  <!-- Star speckles -->
  <circle cx="50" cy="50" r="0.9" fill="white" fill-opacity="0.9"/>
  <circle cx="70" cy="52" r="0.9" fill="#fff8e0" fill-opacity="0.85"/>
  <circle cx="52" cy="70" r="0.8" fill="white" fill-opacity="0.85"/>
  <circle cx="68" cy="68" r="0.9" fill="white" fill-opacity="0.85"/>
  <circle cx="42" cy="58" r="0.7" fill="#ffe8a0" fill-opacity="0.8"/>
  <circle cx="78" cy="60" r="0.7" fill="white" fill-opacity="0.8"/>
  <circle cx="57" cy="42" r="0.8" fill="white" fill-opacity="0.8"/>
  <circle cx="63" cy="78" r="0.8" fill="#ffe8a0" fill-opacity="0.8"/>
  <circle cx="80" cy="46" r="0.6" fill="white" fill-opacity="0.7"/>
  <circle cx="38" cy="70" r="0.6" fill="#ffe0a0" fill-opacity="0.7"/>
  <circle cx="75" cy="78" r="0.6" fill="white" fill-opacity="0.65"/>
  <circle cx="44" cy="44" r="0.5" fill="white" fill-opacity="0.6"/>
  <circle cx="86" cy="62" r="0.5" fill="white" fill-opacity="0.55"/>
  <circle cx="34" cy="55" r="0.5" fill="#ffd080" fill-opacity="0.55"/>
  <circle cx="55" cy="88" r="0.6" fill="white" fill-opacity="0.55"/>
  <circle cx="66" cy="32" r="0.6" fill="white" fill-opacity="0.6"/>
</svg>
