<svg xmlns="http://www.w3.org/2000/svg" viewBox="0 0 120 120">
  <rect width="120" height="120" fill="#060c1a"/>
  <!-- Loose star cluster -->
  <circle cx="60" cy="60" r="35" fill="#0a1830" fill-opacity="0.4"/>
  <!-- Cluster glow -->
  <radialGradient id="ocg" cx="50%" cy="50%" r="50%">
    <stop offset="0%" stop-color="#a0c0ff" stop-opacity="0.25"/>
    <stop offset="100%" stop-color="#a0c0ff" stop-opacity="0"/>
  </radialGradient>
  <circle cx="60" cy="60" r="42" fill="url(#ocg)"/>
  <!-- Stars of varying brightness -->
  <circle cx="60" cy="60" r="2.8" fill="#ffffff" fill-opacity="0.95"/>
  <circle cx="48" cy="52" r="2.2" fill="#e8f0ff" fill-opacity="0.9"/>
  <circle cx="72" cy="55" r="2.0" fill="#ffffff" fill-opacity="0.9"/>
  <circle cx="55" cy="72" r="1.8" fill="#d8e8ff" fill-opacity="0.85"/>
  <circle cx="68" cy="70" r="2.4" fill="#ffffff" fill-opacity="0.9"/>
  <circle cx="42" cy="64" r="1.5" fill="#c8d8ff" fill-opacity="0.8"/>
  <circle cx="76" cy="48" r="1.6" fill="#e0e8ff" fill-opacity="0.8"/>
  <circle cx="52" cy="44" r="1.3" fill="#d0e0ff" fill-opacity="0.75"/>
  <circle cx="78" cy="66" r="1.4" fill="#e8f0ff" fill-opacity="0.75"/>
  <circle cx="44" cy="76" r="1.2" fill="#c0d0f0" fill-opacity="0.7"/>
  <circle cx="66" cy="82" r="1.3" fill="#d0e0ff" fill-opacity="0.7"/>
  <circle cx="84" cy="58" r="1.1" fill="#d8e8ff" fill-opacity="0.7"/>
  <circle cx="36" cy="55" r="1.0" fill="#c0d0f0" fill-opacity="0.65"/>
  <circle cx="62" cy="36" r="1.4" fill="#e0ecff" fill-opacity="0.8"/>
  <circle cx="74" cy="40" r="1.0" fill="#d0e0ff" fill-opacity="0.65"/>
  <!-- Faint background stars -->
  <circle cx="88" cy="72" r="0.7" fill="white" fill-opacity="0.5"/>
  <circle cx="32" cy="68" r="0.6" fill="white" fill-opacity="0.4"/>
  <circle cx="56" cy="88" r="0.7" fill="white" fill-opacity="0.45"/>
  <circle cx="88" cy="44" r="0.6" fill="white" fill-opacity="0.45"/>
  <circle cx="40" cy="40" r="0.7" fill="white" fill-opacity="0.45"/>
</svg>
